<?xml version="1.0" encoding="UTF-8"?>
<svg width="22px" height="22px" viewBox="0 0 22 22" version="1.1" xmlns="http://www.w3.org/2000/svg" xmlns:xlink="http://www.w3.org/1999/xlink">
    <!-- Generator: Sketch 41.2 (35397) - http://www.bohemiancoding.com/sketch -->
    <title>Group</title>
    <desc>Created with Sketch.</desc>
    <defs></defs>
    <g id="Page-1" stroke="none" stroke-width="1" fill="none" fill-rule="evenodd">
        <g id="00.Home" transform="translate(-323.000000, -600.000000)" fill="#FFFFFF">
            <g id="Group-3" transform="translate(306.000000, 583.000000)">
                <g id="Group" transform="translate(17.000000, 17.000000)">
                    <path d="M21.2666667,0 C20.8266667,0 20.5333333,0.293333333 20.5333333,0.733333333 L20.5333333,14.5933333 C19.7266667,13.9333333 18.7,13.4933333 17.6,13.4933333 C15.18,13.4933333 13.2,15.4 13.2,17.7466667 C13.2,20.0933333 15.18,22 17.6,22 C20.02,22 22,20.0933333 22,17.7466667 L22,0.733333333 C22,0.293333333 21.6333333,0 21.2666667,0 Z M17.6,20.5333333 C15.9866667,20.5333333 14.6666667,19.2866667 14.6666667,17.7466667 C14.6666667,16.2066667 15.9866667,14.96 17.6,14.96 C19.2133333,14.96 20.5333333,16.2066667 20.5333333,17.7466667 C20.5333333,19.2866667 19.2133333,20.5333333 17.6,20.5333333 Z" id="Shape"></path>
                    <path d="M0.733333333,6.6 L16.5733333,6.6 C17.0133333,6.6 17.3066667,6.30666667 17.3066667,5.86666667 C17.3066667,5.42666667 17.0133333,5.13333333 16.5733333,5.13333333 L0.733333333,5.13333333 C0.293333333,5.13333333 0,5.42666667 0,5.86666667 C0,6.30666667 0.366666667,6.6 0.733333333,6.6 Z" id="Shape"></path>
                    <path d="M9.38666667,15.4 L0.733333333,15.4 C0.293333333,15.4 0,15.6933333 0,16.1333333 C0,16.5733333 0.293333333,16.8666667 0.733333333,16.8666667 L9.38666667,16.8666667 C9.82666667,16.8666667 10.12,16.5733333 10.12,16.1333333 C10.12,15.6933333 9.82666667,15.4 9.38666667,15.4 Z" id="Shape"></path>
                    <path d="M0.733333333,1.46666667 L16.5733333,1.46666667 C17.0133333,1.46666667 17.3066667,1.17333333 17.3066667,0.733333333 C17.3066667,0.293333333 17.0133333,0 16.5733333,0 L0.733333333,0 C0.293333333,0 0,0.293333333 0,0.733333333 C0,1.17333333 0.366666667,1.46666667 0.733333333,1.46666667 Z" id="Shape"></path>
                    <path d="M13.64,11 C13.64,10.56 13.3466667,10.2666667 12.9066667,10.2666667 L0.733333333,10.2666667 C0.293333333,10.2666667 0,10.56 0,11 C0,11.44 0.293333333,11.7333333 0.733333333,11.7333333 L12.9066667,11.7333333 C13.3466667,11.7333333 13.64,11.44 13.64,11 Z" id="Shape"></path>
                    <path d="M9.38666667,20.5333333 L0.733333333,20.5333333 C0.293333333,20.5333333 0,20.8266667 0,21.2666667 C0,21.7066667 0.293333333,22 0.733333333,22 L9.38666667,22 C9.82666667,22 10.12,21.7066667 10.12,21.2666667 C10.12,20.8266667 9.82666667,20.5333333 9.38666667,20.5333333 Z" id="Shape"></path>
                </g>
            </g>
        </g>
    </g>
</svg>