<?xml version="1.0" standalone="no"?>
<!DOCTYPE svg PUBLIC "-//W3C//DTD SVG 20010904//EN"
 "http://www.w3.org/TR/2001/REC-SVG-20010904/DTD/svg10.dtd">
<svg version="1.0" xmlns="http://www.w3.org/2000/svg"
 width="160.000000pt" height="160.000000pt" viewBox="0 0 160.000000 160.000000"
 preserveAspectRatio="xMidYMid meet">
<metadata>
Created by potrace 1.11, written by Peter Selinger 2001-2013
</metadata>
<g transform="translate(0.000000,160.000000) scale(0.100000,-0.100000)"
fill="#000000" stroke="none">
<path d="M432 1330 c-33 -20 -68 -82 -57 -100 6 -9 -65 -12 -244 -12 -34 0
-49 -5 -67 -25 -22 -24 -24 -35 -24 -125 l0 -98 759 1 759 1 0 81 c0 159 -10
168 -184 166 -64 0 -119 3 -124 7 -4 5 -13 26 -19 46 -8 24 -24 45 -45 58 -32
19 -48 20 -377 20 -327 0 -346 -1 -377 -20z m733 -60 c10 -11 16 -22 13 -25
-3 -3 -173 -4 -379 -3 l-374 3 23 23 c22 22 23 22 360 22 327 0 340 -1 357
-20z"/>
<path d="M50 952 c-6 -2 -10 -117 -10 -317 l0 -314 23 -27 24 -27 679 1 c819
0 737 -2 765 21 l24 19 1 321 c0 177 -2 321 -5 322 -18 3 -1493 3 -1501 1z"/>
</g>
</svg>
